<svg width="256" height="256" viewBox="0 0 256 256" fill="none" xmlns="http://www.w3.org/2000/svg">
<defs>
  <linearGradient id="g" x1="40" y1="28" x2="210" y2="226" gradientUnits="userSpaceOnUse">
    <stop stop-color="#1583F2"/>
    <stop offset=".58" stop-color="#0B63CE"/>
    <stop offset="1" stop-color="#08469B"/>
  </linearGradient>
  <linearGradient id="leaf" x1="126" y1="95" x2="202" y2="142" gradientUnits="userSpaceOnUse">
    <stop stop-color="#7EDC9C"/>
    <stop offset="1" stop-color="#10B981"/>
  </linearGradient>
</defs>
<path d="M128 22C74.98 22 32 64.98 32 118c0 69.2 75.08 115.1 91.5 124.4a9.1 9.1 0 0 0 9 0C148.92 233.1 224 187.2 224 118c0-53.02-42.98-96-96-96Z" fill="url(#g)"/>
<circle cx="128" cy="98" r="38" fill="white" fill-opacity=".98"/>
<circle cx="128" cy="98" r="18" fill="#0B63CE"/>
<path d="M67 153c27-2 37-17 60-17 24 0 36 17 62 17 13 0 23-4 31-9" stroke="white" stroke-width="11" stroke-linecap="round"/>
<path d="M61 176c27-2 38-17 62-17 25 0 37 17 63 17 13 0 24-4 32-9" stroke="white" stroke-width="9" stroke-linecap="round" opacity=".9"/>
<path d="M130 137c19-26 48-31 69-17-8 22-31 34-69 17Z" fill="url(#leaf)"/>
</svg>